<?xml version="1.0" encoding="UTF-8"?>
<svg id="Layer_1" data-name="Layer 1" xmlns="http://www.w3.org/2000/svg" viewBox="0 0 513.32 515.01">
  <path  style="fill: #fff;"   d="M365.01,293.09c-7.31,48.71-63.29,63.3-111.62,63.78l-115.35,1.15,.59-3.44c7.15-2.25,22.59-16.75,28.16-52.97l15.47-106.17c5.57-36.22-5.8-50.45-12.37-52.57l.59-3.44,142.79-1.42c42.72-.43,66.02,23.04,61.93,51.14-3.5,24.05-25.43,44.84-49.71,49.45,28.76,7.19,43.32,29.19,39.52,54.48Zm-143.85,51.63l5.3-.05c43.96-.44,73.1-17.25,77.78-48.17,4.37-30.91-12.37-52.57-48.23-52.21l-19.95,.2-14.9,100.23Zm42.97-193.74c-7.17,.07-14.61,4.2-17.83,25.12l-8.47,57.45,29.31-.29c26.5-.26,43.77-18.83,47.29-41.31,3.2-22.79-12.57-41.34-35.02-41.12l-15.28,.15Z"/>
  <path  style="fill: #fff;"  d="M299.74,415.54c-63.83,29.56-128.28,40.17-181.47,29.9-54.17-10.47-90.44-41.5-102.15-87.37-11.71-45.88,2.74-100.4,40.69-153.51,37.26-52.16,92.93-97.16,156.77-126.71,63.83-29.56,128.28-40.17,181.47-29.9,54.17,10.47,90.44,41.5,102.15,87.37,11.71,45.88-2.74,100.4-40.69,153.51-37.26,52.16-92.93,97.16-156.77,126.71ZM216.12,87.8C86.94,147.61,.03,267.55,22.39,355.16c22.35,87.61,145.64,110.23,274.81,50.42,129.18-59.81,216.08-179.75,193.73-267.36-22.35-87.61-145.64-110.23-274.81-50.42Z"/>
  <path  style="fill: #fff;"  d="M325.06,399.62c-57.82,46.92-119.18,75.5-172.79,80.47-54.59,5.06-94.89-15.03-113.48-56.59-18.59-41.55-12.94-98.94,15.89-161.59,28.32-61.52,75.75-121.24,133.57-168.16C246.07,46.83,307.44,18.25,361.04,13.28c54.59-5.06,94.89,15.03,113.48,56.59s12.94,98.94-15.89,161.59c-28.31,61.52-75.75,121.24-133.57,168.16ZM192.29,102.78C75.29,197.74,8.98,339.55,44.47,418.9c35.49,79.35,159.55,66.66,276.55-28.3,117-94.96,183.31-236.77,147.82-316.12C433.35-4.87,309.29,7.82,192.29,102.78Z"/>
</svg>