<svg width="649" height="613" viewBox="0 0 649 613" fill="none" xmlns="http://www.w3.org/2000/svg">
<path fill-rule="evenodd" clip-rule="evenodd" d="M7.41406 70.2715L8.02344 71.5605L7.04688 71.7305L6.42188 71.0605L5.53125 71.1914L5.22656 70.8301L6.33594 70.5703L6.73438 70.2207L7.41406 70.2715ZM82.6016 10.7402L102.797 18.1602L113.672 18.1211L125.102 24.0215L132.406 27.3711L134.875 28.4902L142.445 32.5215L184.023 47.5L198.273 53.4512L221.086 40.0918L242.742 26.8105L243.336 26.9004L256.727 34.7109L263.492 32.4902L264.516 34.8711L265.414 36.0215L269.172 37.6406L275.836 39.9414L279.523 41.9902L285.953 49.0215L288.711 50.541L290.133 50.8809L291.352 50.8516L292.703 50.3809L294.062 49.4316L295.57 47.8008L296.477 47.3301L300.391 46.3906L303.242 43.541L303.734 43.2812L304.273 43.5117L305.07 44.3301L306.867 47.2715L306.82 48.2402L306.086 50.3516L305.453 51.3301L305.562 52.3516L307.461 53.6504L308.703 56.0918L309.367 57.9414L310.32 58.9199L312.234 58.8203L314.266 59.1113L315.531 59.6406L316.414 60.4102L317.656 62.1016L317.773 63.1113L318.406 63.6309H319.797L323.75 64.4707L324.766 64.8711L326.141 66.3008L329.383 67.3906L330.195 68.4004L330.664 69.791L330.156 70.9414L330.766 72.3613L331 73.6309L330.172 75.0117L330.203 76.041L329.555 76.6699L326.734 77.5L327.102 78.6699L328.492 79.3301L328.984 80.3613L331.273 80.9004L332.914 81.9512L333.141 83.3613L334.023 84.7715L335.188 83.6406L336.086 83.1406L337.352 83.1602L339.234 83.8906L341.562 83.4805L342.922 83.5L344.117 83.5215L347.234 83.0918L348.461 86.5605L350.188 86.9316L352.172 85.7012L352.984 85.6602L354.242 85.9512L357.297 87.6406L359.203 87.7715L360.375 87.4414L360.914 85.6504L361.812 84.7402L362.625 84.5117L363.484 84.6914L365.25 85.4707L365.438 84.1309L365.852 83.0508L366.492 82.7207L367.836 82.791L369 83.9414L370.547 86.3906L371.086 87.6504L373.32 88.8516L374 89.5605L374.781 90.0605L376.016 90.4316L377.094 91.0918L377.477 91.7402L377.711 93.3613L378.672 94.3809L380.344 94.9004L382.562 95.2812L383.445 95.7402L383.82 96.4902L383.961 97.2305L384.836 98.3809L386.266 98.5508L387.906 98.0801L390.195 97.1816L391.445 96.0215L394.852 96.2207L396.188 96.6406L398.016 96.4707L399.172 95.25L400.703 94.3105L401.797 93.1816L402.445 91.8008L403.938 91.1309L404.672 91.041L407.836 91.291L409.945 89.5L411.617 87.3008L412.164 86.8203L413.641 87.0117L417.453 86.9102L418.547 86.4707L420.484 84.9512L422.492 84.0508L424.938 83.8613L426.234 82.7715L427.305 82.6602L429.086 83.3906L432.445 82.7402L434.055 81.9199L436.156 78.8008L436.594 76.8008L434.805 71.6016L434.773 69.3906L435.375 65.7109L435.133 64.3711L434.414 63.1406L433.422 62.1914L434.141 59.25L433.625 58.3008L430.922 55.3008L430.875 54.5605L431.086 54.1699L433.156 54.6211L435.094 55.2715L439.07 58.8418L442.305 62.5312L446.82 71.2109L448.203 77L450.461 83.3418L446.797 83.9199L445.641 80.4512L444.695 76.7812L442.977 73.1211L441.641 76.4004L442.781 79.8711L444.312 83.7305L445.266 87.3906L445.07 91.25L443.352 94.3418L440.117 95.6914L443.938 95.1113L446.414 92.2207L447.742 95.6914L448.703 92.2207L450.938 86.7305L451.242 89.3008L453.016 94.8301L452.711 95.3418L453.086 96.5312L453.344 96.4316L455.617 101.971L456.961 106.16L461.023 115.271L461.445 116.92L463.25 120.4L463.406 122.182L463.055 124.391L465.781 130.99L466.477 132.33L466.664 131.541L463.867 123.871L464.227 123.17L467.852 131.691L468.5 132.682L469.133 135.131L470.234 137.891L472.352 141.121L475.797 147.691L479.461 153.42L481.617 157.801L483.305 159.602L488.281 166.592L490.172 169.951L494.938 174.682L494.875 175.561L494.125 175.42L493.164 174.561L492.594 174.4L492.625 174.99L495.555 177.041L495.781 176.291L496.617 177.012L502.773 184.65L507.352 191.41L507.695 192.432L508.25 193.15L508.203 193.73L509.375 194.99L510.406 196.682L510.57 197.4L509.938 199.121L509.992 199.592L511.016 199.07L511.406 199.201L511.562 198.852L510.938 196.99L509.094 193.211L509.5 192.73L510.281 193.451L512.664 197.041L519.641 205.301L519.945 206.021L519.594 205.971L519.234 206.361L519.703 207.07L520.375 209.342L521.07 209.842L521.742 209.762L520.703 208.15L520.938 207.41L525.523 212.75L525.977 213.041L527.016 214.92L528.094 215.9L529.211 217.691L532.352 220.66L541.5 233.17L542.5 234.291L545.492 235.67L546.461 235.301L547.195 234.342L547.867 233.951L549.055 233.932L550.406 233.07L551.062 233.08L552.195 234.121L553.531 233.521L556.297 234.852L557.305 235.762L557.062 236.73L557.406 237.49L556.75 239.33L556.812 240.48L560.805 247.461L564.375 250.971L565.312 252.271L565.172 252.711L564.375 253.182L564.547 253.49L566.211 254.061L568.117 256.611L576.766 267.291L580.375 272.801L585.57 278.641L588.977 283.57L590.773 284.352L592.297 285.842L594.055 286.23L595.992 286.221L598.195 284.451L598.945 284.641L599.336 285.221L597.875 287.141L597.664 289.08L598.445 289.98L601.344 295.781L602.016 297.781L603.492 298.65L604 300.16L605.211 301.24L608.734 302.15L610.242 301.521L610.953 301.66L614.797 303.811L616.125 303.842L618.664 304.951L620.477 305.211L621.445 305.051L622.562 304.32L624.352 305.371L626.688 305.811L627.844 305.66L629 304.801L630.156 304.82L631.812 305.74L632.977 305.361L634.117 305.48L635.414 306.74L635.117 308.811L636.023 309.75L636.312 310.861L637 311.541L637.688 312.83L638.945 313.92L644.156 316.451L645.633 317.541L646.297 317.781L646.688 318.111L647.016 319.551L648.047 322.24L647.945 323.16L646.438 323.131L645.945 322.701L644.414 320.08L643.422 319.221L641.016 319L639.672 319.141L638.891 320.041L638.727 320.631L638.867 321.801L639.805 324.83L639.25 326.9L637.422 330.541L636.742 331.111L634.75 330.561L633.914 330.551L633.242 330.871L632.477 331.691L631.227 331.66L630.234 330.721L629.195 328.531L628.695 328.521L627.344 329.41L626.32 330.391L625.688 328.791L624.695 329.012L624.336 329.311L621.734 329.301L621.164 328.891L621.07 326.861L619.461 325.24L620.852 324.432L621.172 323.9L620.703 323.061L619.695 322.512L618.57 321.07L618.055 322.871L617.656 323.08L614.305 320.33L614.875 318.541L614.797 318.131L612.547 317.66L611.914 315.98L611.344 315.551L609.766 314.932L607.844 314.98L606.375 313.361L603.57 311.461L602.984 311.291L599.531 312.641L597.891 311.182L595.414 309.711L594.688 308.611L591.25 308.791L590.336 309.432L589.641 309.381L589.234 310.08L588.75 312.111L586.477 313.701L585.742 317.441L584.922 318.391L585.531 318.891L585.453 320.961L585.938 321.15L587.227 320.871L587.875 321.541L587.633 322.42L587.977 323.352L587.297 324.4L587.805 325.342L587.297 326.432L587.555 327.051L588.375 327.91L590.406 327.811L590.703 328.311L589.711 329.262L589.883 329.531L590.414 329.58L591.094 329.021L591.836 329.391L592.195 330.182L593.031 330.141L593.312 331.061L592.922 331.512L589.484 332.5L577.797 334.932L575.656 335.65L575.266 336.102L574.992 342.25L575.102 359.74L575.5 362.4L575.523 407.08L575.742 411.41L576.172 412.48L576.672 412.811L576.992 413.08L582.594 410.08L583.812 409.951L584.945 410.281L587.211 414.42L588.391 415.961L598.367 422.23L601.336 425.48L608.438 427.291L611.875 429.711L612.617 430.561L613.977 434.842L617.773 438.182L617.883 440.23L617.555 441.361L611.797 444.432L610.453 447.061L608.5 449.521L607.273 450.25L600.492 451.631L599.492 452.07L597.945 453.781L596.562 454.281L591.461 455.012L590.086 455.512L588.461 456.541L586.211 459.08L585.805 460.592L586.164 461.512L588.766 464.07L588.742 464.98L588.195 466.031L587.273 466.701L583.82 468.221L583.555 470.49L580.273 471.262L579.195 472.07L579.836 473.66L579.766 474.391L579.125 475.281L579.117 475.9L581.742 479.012L583.047 482.23L586.023 484.441L588.602 485.771L589.188 486.49L589.625 488.73L591.031 490.23L591.531 492.16L593.141 493.721L595.156 496.592L596.164 498.561L596.023 499.971L594.75 501.41L594.852 501.98L595.797 503.021L595.695 506.41L596.836 508.98L596.867 510.191L596.234 511.762L594.688 513.17L594.156 514.041L595.023 518.67L595.102 521.73L594.234 525.67L592.406 529.531L590.25 532.541L588.766 533.701L586.531 534.791L582.383 535.891L580.461 535.91L579.055 535.49L577.023 535.391L572.922 539.611L568.461 544.951L564.617 548.381L559.984 550.951L555.727 552.281L554.414 552.932L553.773 553.602L553.523 554.721L553.664 556.141L554.977 558.262L558.516 559.352L559.406 559.932L563.797 563.461L565.164 565.58L565.891 565.65L568.625 564.691L573.125 565.91L575.195 567.021L575.57 567.82L576.023 570.881L576.734 572.42L576.391 578.23L579.406 579.98L580.906 581.531L581.273 585.602L580.766 588.701L584.094 597.352L584.266 603.111L583.195 608.561L583.023 612.301L582.812 612.031L581.547 611.92L580.844 611.512L578.672 607.82L579.047 606.602L578.984 604.891L579.25 604.592L580.172 604.471L580.805 603.871L581.273 602.432L581.438 600.811L581 597.951L579.242 595.592L578.836 594.092L577.633 592.66L577.25 591.73L576.906 589.17L574.414 583.592L567.602 573.58L564.023 570.08L560.406 568.611L550.383 560.951L540.852 555.5L538.266 552.9L536.391 551.641L534.984 549.551L534.727 546.99L534.977 545.281L535.844 543.541L539.016 540.871L541.102 539.631L542.133 538.461L542.586 535.301L544.016 533.791L544.555 532.83L544.484 531.99L542.734 528.611L540.891 525.891L535.586 519.811L534.633 516.4L533.695 514.98L534.227 514.9L535.133 515.49L535.766 517.391L536.547 518.021L537.203 517.9L536.953 517.102L536.391 516.691L536.453 515.811L537.07 515.432L539.266 515.871L541.5 513.531L543.055 513.82L543.062 513.4L542.305 512.971L541.117 512.861L538 514.521L537.086 514.5L536 513.561L535.141 512.092L533.836 511.631L533.094 511L528.453 504.711L528.172 503.25L529.727 500.291L530.602 500.66L531.055 502.471L531.703 503.012L532.883 503.342L533 503.961L532.141 505.221L532.961 506.16L531.922 507.551L532.773 509.111L535.484 507.531L536.516 506.451L537.562 506.512L538.305 507.012L538.984 506.051L538.906 505.521L537.688 504.932L536.75 505.352L536.367 505.121L535.914 503.4L532.203 498.762L530.414 497.941L529.422 496.691L528.531 497.291L527.977 496.711L527.406 496.66L527.047 497.012L527.086 497.271L528.391 497.73L528.695 498.311L528.766 499.41L528.352 500.24L527.695 500.541L527.031 500.48L526.383 499.9L524.492 499.781L523.367 498.842L522.438 499.221L521.602 499.031L521.305 498.721L521.711 497.941L521.547 497.451L520.805 497.131L518.125 497.041L517.117 499.361L516.5 499.17L515.172 496.99L514.211 494.031L513.641 493.762L512.094 494.301L509.336 493.371L508.273 493.48L506.844 494.512L504.344 491.381L503.555 490.971L502.234 490.82L501.586 490.5L501.203 489.74L500.062 489.32L499.625 488.92L500.25 488.141L499.664 486.371L500.211 485.061L500.281 483.74L501.391 482.881L501.688 481.041L500.461 480.4L499.484 481.352L498.867 481.342L498.438 480.762L497.336 480.561L496.125 479.041L495.297 478.852L494.844 479.42L493.172 478.91L491.281 478.75L490.984 478.57L490.836 477.07L490.445 476.801L489.688 477.271L489.625 478.061L488.695 478.66L488.5 479.762L488.102 480.021L487.266 479.961L487.141 479.16L486.711 478.762L486.047 479.102L485.383 479L483.586 481.432L481.844 482.551L480.383 482.881L479.336 482.641L479 481.451L476.141 481.4L474.617 480.891L473.477 480.92L473.195 481.49L472.617 481.83L471.438 481.631L470.305 483.33L470.055 485.262L470.477 486.32L471.172 486.641L472.023 485.82L472.852 485.92L473.594 486.5L473.711 487.031L472.891 488.561L473.414 489.102L474.086 488.541L474.836 488.512L476 489.371L477.438 490.98L478.914 492.021L480.367 494.73L479.695 497.801L479.812 498.9L480.625 499.512L481.023 500.371L481.891 501.262L484.062 503.012L486.227 505.512L487.875 506.951L489.188 507.682L490.414 507.66L491.883 509.141L494.484 508.74L499.688 510.682L502.281 513.23L503.875 515.371L505.406 515.881L506.531 516.781L507.375 516.311L507.562 515.262L508.086 515.881L508.336 516.811L507.273 524.58L507.875 525.602L511.242 529.4L511.016 530.23L510.336 531.141L508.367 532.91L508.523 533.701L510.547 536.682L510.75 537.521L509.188 541.67L509.836 544.631L509.102 546.24L507.055 547.57L502.688 546.041L497.625 543.621L490.234 541.121L484.734 538.611L481.555 536.66L479.5 535.92L470.422 534.102L466.297 533.852L463.914 533.9L459.727 534.58L459.453 534.842L458.234 534.381L456.242 534.961L455.016 534.762L450.273 531.301L449.773 529.49L448.312 527.57L445.844 525.291L441.797 522.941L434.391 514.682L428.203 508.291L426.141 507.682L425.891 507.021L425.055 507.4L424.336 508.141L423.695 507.121L423.117 504.73L421.438 502.201L421.492 501.5L422.805 499.102L423.227 497.432L424.25 496.08L425.625 495.57L425.984 494.961L426.445 490.92L426.906 489.83L429 488.061L430.953 487.391L436.727 487.041L437.617 486.701L438.281 485.83L438.922 484.041L438.695 481.842L439.336 479.961L440.367 478.74L441.695 478.23L442.414 477.271L441.945 476.65L441.242 476.551L440.703 477.16L440.305 477.201L439.891 475.121L439.914 473.891L440.234 473.102L440.688 472.67L442.883 472.57L444.617 471.852L445.742 469.971L446.742 470.602L446.797 470.07L445.766 468.291L446.031 468.08L448.773 467.73L450.672 467.15L452.203 467.701L453.727 466.531L453.305 465.291L452.953 465.061L452.156 465.49L452 463.771L451.695 463.762L451.336 464.42L450.914 465.951L450.023 466.291L446.984 466.24L445.016 465.861L444.352 468.49L443.852 469.451L442.25 470.531L441.375 470.432L438.867 467.75L443.656 462.631L444.633 462.16L445.352 461.201L446.5 460.82L447.57 459.91L448.297 458.691L450.336 458.111L452.695 459.291L454.055 459.4L455.312 460.221L455.891 459.881L455.211 458.641L453.383 457.24L453.047 456.271L453.453 455.621L454.453 456.432L457.938 456.352L459.047 456.021L460.75 456.58L462 455.9L462.125 456.432L460.852 459.012L460.141 461.82L459.156 463.08L458.273 463.42L456.734 463.441L455.625 464.131L455.203 465.361L455.273 466.371L454.82 467.201L453.812 467.012L453.711 467.41L454.062 467.852L454.852 468.301L455.781 468.012L456.445 468.111L457.07 467.41L456.922 466.041L457.336 465.301L458.836 464.932L460.484 463.861L461.727 460.801L461.664 459.131L462.25 457.861L463 457.611L463.914 458.291L464.406 458.211L466.547 456.701L470.07 456.191L470.617 455.631L470.273 454.74L469.484 454.33L469.164 454.941L468.492 455.41H465.945L463.984 456.74L463.461 456.471L463.383 455.682L464.461 454.42L463.852 453.92L462.656 454.521L461.734 454.33L460.445 455.41L458.25 454.711L456.047 455.201L454.641 454.65L453.695 453.531L452.906 453.432L452.102 453.9L451.867 455.182L452.367 456.99L452.188 457.381L451.836 457.371L450.961 456.65L450.422 454.701L449.547 454.512L447.141 452.971L443.406 453L444.688 450.16L444.844 448.061L446.195 449.041L448.117 449.861L453.211 450.65L454.484 451.291L455.133 452.092L456.883 452.74L456.391 450.4L455.211 449.631L454.836 448.83L455.641 447.57L456.352 447.451L457.844 448.051L459.031 447.98L459.227 447.102L458.703 446.521L457.07 446.32L455.703 446.521L454.016 447.461L453.242 449.08L452.531 449.691L449.305 447.65L448.727 447.82L446.977 447.221L446.273 446.682L445.938 445.57L446.07 445.182L446.766 446.07L448.602 446.541L449.773 447.531L450.695 447.592L451.188 447.111L451.141 446.58L447.688 445.602L447.242 445.281L446.914 444.041L446.523 443.771L445.781 443.541L443.906 445.012L443.195 445.092L442.766 444.73L442.727 444.16L443.227 443.33L445.594 441.301L446.141 440.16L445.938 439.281L446.461 436.16L446.266 434.531L445.234 432.57L445.297 431.91L444.672 429.451L443.852 428.021L443.82 427.051L444.242 425.73L444.914 425.432L447.242 425.512L447.25 425.16L444.711 424.281L444.086 422.42L444.242 420.92L444.914 420.451L444.922 420.102L443.961 419.91L443.453 418.75L442.133 418.641L441.391 418.281L439.75 416.051L438.227 415.191L437.414 416.061L436.625 416.092L435.422 413.602L432.891 411.971L433.086 411.221L432.836 410.512L431.602 410.092L430.531 408.182L426.883 404.891L426.477 403.291L424.367 401.881L423.391 400.24L422.164 399.092L421.352 398.762L419.531 398.98L418.688 399.531L418.211 400.682L417.773 400.67L416.812 399.951L417.711 398.73L417.164 397L417.031 394.041L416.477 393.021L414.164 390.951L410.273 388.682L403.781 385.98L401.453 385.721L401.195 385.371L401.703 383.83L401.055 382.941L399.875 382.08L398.102 379.58L392.953 375.842L391.211 374.141L391.367 373.08L390.75 372.631L390.133 372.711L389.594 373.32L385.883 370.621L385.688 369.432L385.242 369.512L384.883 370.211L375.953 365.271L367 361.432L366.352 360.451L367.211 358.961L366.695 358.512L366.062 358.99L365.641 360.75L364.938 360.74L363.617 360.24L360.852 358.521L358.836 357.961L355.984 356.461L350.617 355.191L349.773 355.4L348.305 356.352L347.766 354L347.281 353.73L346.75 353.99L346.164 354.871L345.062 354.721L344.227 355.111L343.453 353.33L342.273 352.121L341.172 351.57L339.984 351.461L339.055 351.801L338.266 351.74L339.391 350.17L340.453 350.451L340.773 349.66L339.797 346.781L340.422 345.691L339.086 343.91L336.672 342.641L334.977 340.852L333.891 339.25L332.586 338.352L328.633 337.012L327.156 335.49L325.695 332.602L324.695 331.611L324.031 331.381L323.625 332.041L324.141 333.15L327.625 337.301L329.195 338.381L330.992 338.98L332.453 339.041L332.984 339.361L333.234 340.291L332.914 340.73L331.812 340.762L329.656 340.111L329.305 339.621L326.234 338.301L323.961 336.682L322.492 334.271L320.203 334.191L318.273 333.211L317.07 333.432L317.727 334.17L318.297 334.4L321.344 334.932L321.953 335.381L321.945 335.91L321.414 336.08L318.055 335.07L316.5 335.051L316.062 334.65L313.242 334.441L312.805 334.611L311.094 333.441L310.344 333.25L309.734 332.711L310.133 332.23L310.062 331.17L309.586 330.99L308.953 331.781L307.711 331.852L307.57 332.16L307.875 332.74L307.602 332.871L297.305 330.48L296.344 329.631L295.805 330.15L293.602 329.861L292.766 329.49L292.422 328.201L291.727 327.932L290.961 328.67L289.812 328.611L287.531 327.611L286.203 327.551L283.352 326.41L281.5 326.121L280.383 326.25L278.938 325.701L278.617 326.361L270.422 327.75L268.516 325.521L268.086 324.631L269.117 323.41L268.688 322.521L266.641 323.24L265.297 322.031L264.812 321.932L264.906 322.602L265.664 323.381L265.406 323.621L263.742 322.141L263.445 321.471L262.641 321.461L260.32 319.441L255.672 316.73L255.016 316.191L253.492 313.74L253.734 312.371L252.516 311.07L252.266 310.141L251.617 309.201L251.172 309.15L250.031 308.16L248.922 308.721L248.312 308.49L246.695 306.971L246.391 306.262L247.336 305.432L247.602 304.682L247.523 303.971L246.523 302.852L245.336 302.352L243.297 302.9L242.945 302.5L242.867 301.881L244.203 300.48L243.953 299.371L244.492 298.49L244.367 297.91L243.141 296.971L243.57 294.102L244.383 293.182L245.055 292.971L245.594 292.141L245.734 291.121L246.594 289.41L248.781 287.102L249.75 286.891L250.297 285.92L251 285.4L252.141 282.281L251.141 277.451L250.305 276.91L247.273 271.971L244.484 268.842L243.961 267.91L242.172 265.941L240.023 264.9L238.883 264L238.531 263.33L238.672 262.98L239.242 263.07L239.602 262.771L238.391 260.941L233.188 256.762L233.141 256.102L234.07 255.541L235.242 254.23L236.555 252.121L236.477 251.5L234.102 249.701L231.961 247.42L231.234 245.471L231.562 243.441L231.172 242.641L230.516 241.971L229.453 241.561L226.75 241.48L224.281 240.791L221.586 241.16L218.805 240.91L217.242 241.512H213.391L211.312 241.881L210.656 241.701L210.266 240.9L210.586 240.371L211.781 239.811L215.555 239.061L214.273 238.781L213.125 238.9L209.992 237.762L208.023 236.191L202.664 232.9L201.047 231.602L197.883 229.48L196.914 229.42L196.477 228.842L196.57 227.961L194.75 228.381L192.227 224.551L191.125 224.051L190.281 224.262L187.594 223.432L187.281 222.98L187.641 222.541L188.625 222.15L189.5 222.16L188.891 221.182L188.555 219.58L187.812 218.551L185.836 217.551L183.805 217.262L182.172 216.49L178.852 212.74L177.445 211.531L174.547 210.221L172.695 209.012L171.945 208.91L170.773 210.271L170.242 210.441L169.164 209.9L169.086 209.82L167.273 209.561L166.883 209.031L166.977 208.541L165.445 206.75L163.336 205.131L163.562 204.342L164.531 204.531L165.195 205.16L166.602 205.441L167.133 205.141L167.367 204.66L166.883 203.512L165.688 203.98L162.203 202.75L161.195 201.941L159.914 201.711L157.023 202.92L155.852 204.41L154.438 204.75L153.906 204.211L153.023 204.07L152.32 203.621L150.953 203.781L148.922 202.701L146.492 202.32L145.914 202.621L144.234 202.16L143.094 201.57L141.633 201.24L140.133 200.25L138.555 198.73L138.172 196.74L137.047 194.342L137.75 193.951L138.164 192.541L137.953 191.211L136.734 189.211L135.281 187.781L135.156 186.98L133.961 186.531L132.867 185.592L130 184.012L128.156 183.371L127.367 182.561L128.492 180.361L128.414 179.471L125.438 176.471L124.375 176.15L123.547 175.391L122.984 173.971L121.492 172.631L116.094 172.49L115.297 172.701L114.266 173.66L112.945 172.67L111.484 172.74L112.711 173.5L113.5 174.621L114.164 174.801L114.961 174.23L116.422 174.602L118.82 173.471L119.711 173.441L121.438 174.16L122.922 175.771L124.055 177.602L126.477 179.131L126.953 180.061L126.945 180.771L126.266 182.58L126.477 184.092L127.047 184.762L129.164 185.221L130.742 186.121L134.781 189.57L135.297 191.971L134.836 193.25L134.727 195.9L135.234 197.811L134.695 198.861L135.023 201.211L134.797 201.691L134.172 201.99L134.031 202.871L135.352 208.021L137.57 211.711L135.164 209.521L133.977 209.33L133.75 209.021L132.477 209.051L131.812 208.25L128.133 209.102L126.977 210.33L127.688 210.781L128.484 209.682L129.547 209.73L130.242 210.621L129.391 211.141L128.766 211.971L128.984 212.41L129.516 212.371L131.164 210.932L131.25 210.4L130.906 209.781L131.484 209.611L132.234 210.102L134.625 210.17L135.633 210.842L136.023 211.771L135.844 212.17L134.734 212.381L135.922 213.102L136.141 213.721L135.203 214.771L135.711 216.41L136.297 215.842L138.445 218.07L139.805 219.061L144.031 220.83L145 221.73L145.562 223.5L146.664 224L148.188 226.32L150.25 227.4L151.352 227.41L152.023 226.711L152.414 227.33L152.227 229.141L151.867 229.762L151.203 229.67L150.156 228.641L148.203 228.49L147.234 227.91L146.094 226.842L145.312 225.371L144.375 226.25L143.75 226.111L143.266 226.5L144 227.262L145.203 227.141L146.203 228.961L147.047 229.15L147.656 230.221L148.984 229.881L149.766 231.221L150.203 231.271L150.477 231.811L150.414 231.881L150.141 232.361L151.062 233.48L152.734 234.25L156.594 237.701L158.844 238.211L159.141 239.451L159.75 240.211L160.555 240.281L161.344 241L163.156 241.24L164.484 240.281L165.906 240.381L166.203 241.58L167 241.41L167.25 242.521L168.055 242.441L169.391 240.82L170.375 240.391L171.211 240.4L175.82 243.24L176.992 245.111L179.312 247.57L180.234 247.852L182.75 247.521L185.406 247.951L186.203 247.471L188.992 247.33L190.977 248.24L192.875 248.66L194.414 249.83L196.172 250.471L196.695 251.141L196.5 252.16L196.75 253.361L197.273 254.16L196.82 254.99L195.625 255.371L194.141 257.08L193.812 258.451L194.023 259.291L195.867 261.121L196.836 261.092L197.172 261.932L197.125 262.682L197.516 263.041L198.352 262.92L199.141 263.861L198.836 264.25L197.336 264.061L195.32 265.941L195.188 266.512L195.531 267.271L197.062 268.531L198.297 268.99L199.172 268.91L199.531 268.471L200.812 268.352L201.703 267.83L203.242 268.201L204.391 268.041L206.992 268.73L207.07 269.131L206.711 269.92L204.586 270.74L204.125 271.881L202.133 271.951L201.156 272.201L200.844 272.592L200.297 274.262L199.664 275L196.336 275.891L196.102 276.33L196.625 277.352L194.953 280.201L194.492 281.701L193.875 282.051L192.062 281.811L191.617 282.25L190.953 282.07L190.234 283.871L190.836 285.691L190.82 286.711L190.461 287.541L189.266 288.15L187.062 287.512L185.406 285.99L183.641 285.221L182.984 284.551L181.344 284.801L180.188 285.721L178.797 287.781L178.461 289.24L178.672 290.352L181.055 291.311L181.852 292.041L181.977 292.691L180.945 294.4L179.383 295.441L176.281 296.25L175.352 296.771L174.016 298.48L171.391 299.471L168.703 302.66L167.023 306.842L166.914 308.83L164.492 316.271L163.773 317.9L161.023 318.801L160.703 319.771L160.914 320.83L160.641 321.131L159.812 320.111L159.422 318.961L158.461 318.291L156.305 317.83L154.641 316.092L154.031 314.762L153.602 309.191L152.867 308.262L150.938 306.871L143.023 298.17L141.992 294.762L141.305 293.432L140.344 292.49L139.57 290.32L137.023 287.262L137.086 287.191L136.188 286.24L133.336 284.051L129.867 282.25L129.82 281.5L130.352 280.98L130.586 280.102L129.461 277.131L124.281 273.102L122.523 272.111L120.453 271.432L118.297 271.102L118.266 270.131L116.734 268.83L112.383 266.182L110.531 265.852L107.453 264.361L105.641 263.811L104.938 263.852L104.391 264.951L102.711 264.762L100.516 263.852L99.5938 262.871L98.625 262.371L96.6328 262.041L94.1172 262.42L93.5234 264.051L92.9844 264.49L92.1875 264.441L88.6641 262.42L88.3203 261.182L87.7109 260.781L85.8047 262L84.875 261.861L84.5156 262.391L84.0312 262.25L83.875 260.611L81.9453 259.041L81.1406 258.951L79.4141 259.82L77.3828 259.801L74.875 258.852L72.7969 259.41L71.6562 258.602L69.5859 258.361L67.8203 256.842L66.0938 257.182L64.9062 256.9L61.8906 256.92L61.1953 256.471L60.9844 255.141L60.0156 254.291L58.6016 253.881L57.3672 253.961L56.6562 254.352L56.6953 254.971L56.3828 255.451L53.6172 254.061L54.0156 253.221L54.5938 252.961L54.8672 252.121L54.4453 249.371L53.6641 247.73L52.3047 245.861L52.4844 245.15L51.2656 242.75L47.4531 237.99L46.8906 236.75L45.4844 235.461L44.1172 234.701L40.4219 230.871L39.375 229.361L38.6875 226.74L38.1641 225.852L35.7969 223.791L35.4453 222.951L34.9609 222.771L34.0938 221.352L31.2422 217.74L31.1719 215.75L30.0312 214.5L28.6641 208.691L27.4375 207.17L27.3125 205.801L25.1406 201L22.125 196.9L22.2656 195.791L21.7969 193.842L21.8516 192.07L19.6328 187.182L19.4766 185.23L20.0625 183.291L18.9844 179.471L21.3516 177.32L22.2422 175.951L21.4609 173.682L20.4141 171.941L18.8359 170.291L18.2266 169.221L17.2969 168.9L16.8516 168.32L16.3672 168.541L15.7031 167.871L15.2109 167.82L15.1328 167.201L15.8516 165.48L17.1406 164.561L17.8047 164.521L18.4141 165.191L18.9531 164.271L19.75 164.361L20.2031 163.701L20.5703 162.15L21.2422 161.762L22.9141 158.361L23.4922 158.23L23.9844 157.66L24.6172 156.111L25.1406 156.291L25.5312 157.182L27.7422 157.551L28.4922 157.16L29.2109 156.371L30.3047 152.48L29.7969 149.91L31.0312 150.051L31.5156 150.98L32.6719 150.371L33.6641 148.871L33.8516 147.371L33.1953 146.74L32.8125 144.17L31.3516 143.23L31.5859 142.701L31.1406 142.342L30.25 142.201L29.7734 141.711L29.7422 140.111L28.7344 139.041L29.4922 138.291L28.9219 137.182L27.5547 136.24L27.6406 135.842L30.6172 135.33L31.2031 134.23L32 133.66L31.9219 132.951L32.5 132.16L32.4609 131.811L33.625 130.932L34.9062 131.342L35.8359 131.17L36.3125 132.33L37.5 133.361L38.7969 133.32L42.4062 130.291L44.625 129.471L46.4141 127.762L46.5469 128.16L47.3359 128.701L48.1328 128.66L49.25 127.211L49.0703 126.811L49.25 126.371L48.5156 124.951L48.6406 124.641L50.6875 124.48L52.1562 123.83L52.6953 123.301L52.3516 121.701L52.7109 121.17L54.2109 121.32L54.6641 120.701L56.8359 121.121L57.375 120.682L57.7812 119.801L58.0156 118.301L59.3438 118.531L59.7109 116.721L60.4375 116.061L61.5469 115.631L61.8203 114.08L61.5859 113.381L60.9219 112.711L57.1641 111.391L56.2734 111.74L54.9375 112.932L52.9844 113.311L52.9609 115.531L52.25 115.83L51.8047 117.16L50.1641 117.631L49.7656 118.291L48.6562 117.881L48.5703 117.48L50.2656 116.48L50.7656 114.891L50.0156 114.352L50.6406 113.16L51.0859 113.211L51.4922 112.551L52.4609 112.602L53.1875 111.451L53.0547 111.092L52.2109 110.73L51.4141 110.771L52.2266 109.762L53.1953 109.682L53.7812 108.49L53.3047 107.82L53.4453 107.42L54.8672 107.791L57.0469 106.352L57.3672 105.602L55.9141 98.7617L54.9375 96.1406L55.4141 94.6699L55.1641 92.6699L56.125 89.5312L56.2266 88.291L54.9531 86.3711L52.7969 84.3516L51.9141 83.0605L51 80.8418L48.2969 81.0801L47.4609 80.0508L46.0859 80.1309L45.4219 79.4609L44.6719 79.3613L42.9844 79.6602L41.3047 78.5801L39.75 78.5703L38.5859 78.6816L37.2969 79.3301L36.125 81.0508L33.7422 79.6113L31 78.75L30.1172 78.791L29.7656 77.6309L29.2422 76.7402L28.5703 76.25L28.2266 75.4004L28.4141 74.0312L31.2422 74.6309L31.3828 73.8301L30.2031 71.5117L27.7109 72.2012L26.25 72.1016L23.8672 71.0605L18.75 70.9414L17.3672 67.5L16.7031 66.9609L14.3516 66.2715L9.22656 64.0508L8.21094 63.2012L6.53125 62.5703L5.51562 62.6113L4.80469 63.1406L1.60156 63.9609L0.585938 63.6016L2.41406 62.5L4.94531 61.9902L6.63281 61.1211L7.30469 60.4199L10.1406 60L11.3047 59.3906L12.9922 59.1816L13.5703 58.791L13.9766 58.041L16.2422 57.5703L17.2812 55.4902L16.4922 54.5117L13.4844 52.8906L15.5703 52.8613L16.1172 52.5508L21.4375 53.5312L22.1406 53L23.5234 53.1016L24.625 53.8203L25.3359 53.6504L26.5625 54.9512L26.6406 55.5703L25.75 56.3203L26.1875 58.3203L26.75 58.8613L27.9922 59L29.2266 60.1211L30.9141 60.2207L31.625 59.7812L31.8047 59.1602L31.5859 58.4902L30.0859 56.9199L30.2266 56.4316L31.2031 56.4414L31.9766 55.0703L32.8125 55.4316L33.1719 54.8516L34.9531 54.7305L35.625 54.9609L36.0625 55.9805L37.0469 55.1914L38.7734 55.4316L39.4062 54.8613L40.6406 54.8301L41.6641 55.1504L42.3203 55.7305L42.7734 55.4199L43.5703 55.5215L44.1016 56.2812L43.875 57.1211L44.75 57.8418L45.7266 57.9805L46.1719 57.5L46.1953 55.5918L47.4453 55.2012L47.8906 54.4102L47.6328 53.7012L44.7734 52.2109L45.2109 51.2812L46.8516 51.6016L47.1719 50.6309L47.9375 50.2812L49.5312 50.2012L50.25 49.4102L50.4453 48.041L50.0547 47.1504L49.2656 46.4805L46.9922 45.3105L44.0156 41.8105L43.3047 41.4004L41.8828 41.2617L40.875 40.5L39.2812 39.8203L37.6562 37.8105L39.1328 35.7812L40.6406 35.791L40.875 35.3516L40.3906 34.6406L40.4844 34.2012L41.1953 33.7617L42.3906 33.9512L42.8438 33.5508L44.6016 35.1602L44.8672 36.1406L45.2109 36.4512L49.3828 37.2402L51.0312 36.7617L52.0625 35.8418L53.1719 35.4512L53.7656 34.6113L53.9922 33.7715L53.5703 30.5215L52.4375 29.3105L51.4609 28.9512L50.3125 27.791L48.7266 27.8613L51.8906 22.1406L55.1016 17.1816L55.875 15.4316L62.5156 4.86133L63.3438 3.30078L63.9531 0.919922L64.7031 0.291016L65.5938 0.25L73.875 1.52148L75.3203 1.91016L76.7656 3.33008L80.4453 8.06055L81.5859 10.0801L82.6016 10.7402ZM139.852 240.551L143.484 240.861L143.422 240.932L139.797 240.621L139.852 240.551ZM274.641 316.131L280.625 315.971L284.117 315.301L287.32 314.871L284.094 315.281L280.602 315.951L274.641 316.131ZM301.531 304.512L304.805 304.08L310.836 303.861L304.797 304.051L301.531 304.512ZM557.016 394.41L552.961 393.311L552.664 392.24L552.977 393.271L557.031 394.371L562.812 395.371L565.555 396.852L562.797 395.41L557.016 394.41ZM565.555 396.852L567.516 407.852L569.516 411.66L572.094 413.602L569.5 411.701L567.5 407.9L565.555 396.852ZM536.164 371.92L532.047 366.102L529.188 363.551L532.062 366.061L536.188 371.891L538.852 372.801L542.992 374.701L548.016 377.33L550.562 378.24L551.242 382.141L550.547 378.271L547.984 377.361L542.961 374.73L538.836 372.83L536.164 371.92ZM514.891 359.461L510.156 358.551L507.336 356.32L505.203 354.021L501.375 351.971L505.227 354L507.352 356.301L510.172 358.531L514.914 359.441L516.492 360.432L519 364L522.195 364.721L518.984 364.021L516.477 360.461L514.891 359.461ZM428.453 383.58L432 389.531L434.273 394.771L432.016 389.5L428.453 383.58ZM391.25 351.621L393.5 356.4L396.102 359.15L398.273 360.711L396.117 359.131L393.516 356.371L391.25 351.621ZM371.094 340.111L371.422 341.771L372.883 344.67L371.438 341.75L371.094 340.111ZM357.672 326.342L358 330.191L361.375 331.541L358.016 330.182L357.672 326.342ZM345.812 315.41L348.031 318.811L350.242 319.561L348.047 318.801L345.812 315.41ZM395.344 480.381L394.047 481.99L393.32 482.602L392.227 482.711L391.305 482.301L390.961 481.631L391.461 480.762L391.477 479.881L395.211 480.07L395.344 480.381ZM343.953 306.361L345.531 307.182L346.516 309.4L345.555 307.16L343.977 306.342L339.867 305.951L343.953 306.361ZM487.938 361.551L487.453 359.23L485.695 357.4L487.477 359.201L487.938 361.551ZM444.312 440.762L443.641 441.061L443.297 440.75L442.602 437.131L443.531 436.66L444.195 436.98L445 438.842L444.805 440.121L444.312 440.762ZM130.391 87.3809L136.352 86.4102L141.406 85.8711L136.336 86.3906L130.391 87.3809ZM443.711 433.971L442.852 435.191L442.102 435.092L441.672 434.471L441.852 431.701L441.602 425L439.625 419.33L440.555 419.17L441.523 419.41L442.156 421.141L442.141 421.891L443.422 424.861L443.086 426.881L443.195 428.07L444.742 432.99L444.516 433.602L443.711 433.971ZM202.086 248.441L198.414 248.621L197.445 248.041L196.836 247.15L196.977 246.711L199.062 245.98L199.156 245.41L198.766 244.83L201.992 245.262L201.797 247.471L202.445 248.23L202.086 248.441ZM170.312 237.381L172.516 239.092L172.867 239.711L169.281 239.58L168.125 240.631L167.336 240.311L166.812 239.111L165.625 238.301L165.633 237.771L166.305 237.381L167.852 237.441L168.25 237L170.312 237.381ZM181.891 236.631L184.812 237.721L186.805 237.961L187.766 238.811L188.523 238.691L188.742 239.182L188.203 239.621L185.555 239.371L180.133 237.58L178.891 237.65L178.766 237.25L179.781 236.82L181.891 236.631ZM177.664 236.451L177.172 236.842L173.336 235.871L172.586 235.33L172.766 234.852L177.664 236.451ZM152.82 213.221L153.75 213.32L154.727 213.07L156.977 214.07L159.367 214.58L160.023 215.031L160.781 214.9L161.172 215.48L160.812 216.23L159.844 216.311L158.305 215.592L157.547 216.031L152.375 215.092L151.414 213.881L151.141 214.012L150.961 214.541L151.703 215.701L152.586 216.15L153.695 216.211L154.172 216.971L154.75 216.932L155.242 216.361L155.867 216.682L156.523 216.551L157.586 216.83L158.586 218.17L159.117 218.49L160.266 218.281L161.461 217.541L163.188 217.561L163.266 218.221L162.766 219.102L161.836 219.531L161.781 219.932L158.227 221.4L157.25 221.262L153.211 222.102L150.164 221.852L147.211 220.361L146.477 219.602L145.867 218.66L144.883 214.98L144.312 214.182L144.852 213.262L145.875 213.311L148.727 211.971L150.711 212.17L152.82 213.221Z" fill="url(#paint0_linear_1841_38)"/>
<defs>
<linearGradient id="paint0_linear_1841_38" x1="-44.5" y1="-102" x2="738" y2="708.5" gradientUnits="userSpaceOnUse">
<stop offset="0.0806304" stop-opacity="0.536458"/>
<stop offset="0.567941"/>
<stop offset="1" stop-opacity="0"/>
</linearGradient>
</defs>
</svg>
